<svg width="27" height="25" viewBox="0 0 27 25" fill="none" xmlns="http://www.w3.org/2000/svg">
<path fill-rule="evenodd" clip-rule="evenodd" d="M16.9759 8H8.99979C8.97554 7.87737 8.9511 7.74179 8.92826 7.59563C8.81991 6.90212 8.7548 6.0146 8.88922 5.15438C9.02314 4.29734 9.34271 3.53702 9.94317 2.98803C10.534 2.4478 11.5197 2 13.2137 2C14.911 2 15.8495 2.44894 16.3847 2.9679C16.9298 3.4965 17.2002 4.23676 17.2805 5.09335C17.361 5.95151 17.2407 6.83971 17.0883 7.53631C17.0511 7.70632 17.0127 7.86211 16.9759 8ZM6.95224 7.90437C6.95728 7.93667 6.9624 7.96855 6.96757 8H3.00134C1.06679 8 -0.362 9.804 0.0810873 11.6871L2.66932 22.6871C2.98818 24.0423 4.19742 25 5.58957 25H20.8375C22.2296 25 23.4389 24.0423 23.7577 22.6871L26.346 11.6871C26.7891 9.804 25.3603 8 23.4257 8H19.0341L19.0421 7.96369C19.2179 7.16029 19.3788 6.04849 19.2718 4.90665C19.1646 3.76324 18.7787 2.5035 17.777 1.5321C16.7653 0.551065 15.2664 0 13.2137 0C11.1577 0 9.64338 0.552195 8.59363 1.51197C7.55347 2.46298 7.09179 3.70266 6.9132 4.84562C6.7351 5.9854 6.82623 7.09788 6.95224 7.90437ZM13.2135 24C17.0795 24 20.2135 20.866 20.2135 17C20.2135 13.134 17.0795 10 13.2135 10C9.34751 10 6.2135 13.134 6.2135 17C6.2135 20.866 9.34751 24 13.2135 24Z" fill="white"/>
</svg>
