<svg width="223" height="67" viewBox="0 0 223 67" fill="none" xmlns="http://www.w3.org/2000/svg">
<path d="M12.9883 57.4062C12.418 58.0078 11.6953 58.4766 10.8203 58.8125C9.95312 59.1484 9.07031 59.3164 8.17188 59.3164C7.05469 59.3164 6.13281 59.0195 5.40625 58.4258C4.67969 57.832 4.31641 56.9727 4.31641 55.8477C4.31641 54.6445 4.89844 53.7383 6.0625 53.1289C6.9375 52.6602 8.4375 52.2539 10.5625 51.9102C10.9609 51.8398 11.6094 51.7383 12.5078 51.6055C12.5078 50.2773 12.3398 49.3633 12.0039 48.8633C11.668 48.3633 11.0234 48.1133 10.0703 48.1133C9.375 48.1133 8.60156 48.2695 7.75 48.582C6.89844 48.8945 6.21875 49.3281 5.71094 49.8828C5.07812 49.3516 4.76172 48.832 4.76172 48.3242C4.76172 47.8867 5.0625 47.5 5.66406 47.1641C6.26562 46.8203 6.97266 46.5703 7.78516 46.4141C8.60547 46.25 9.42578 46.168 10.2461 46.168C11.0195 46.168 11.6953 46.2656 12.2734 46.4609C12.8594 46.6484 13.375 46.9609 13.8203 47.3984C14.2656 47.8359 14.6016 48.4375 14.8281 49.2031C15.0625 49.9688 15.1797 50.8984 15.1797 51.9922V55.7422C15.1797 56.0625 15.2031 56.3047 15.25 56.4688C15.3047 56.625 15.3633 56.7227 15.4258 56.7617C15.4883 56.793 15.5898 56.8164 15.7305 56.832C15.9727 56.8555 16.1523 56.8789 16.2695 56.9023C16.3867 56.918 16.5234 56.9453 16.6797 56.9844C16.8359 57.0234 16.9453 57.0742 17.0078 57.1367C17.0781 57.1992 17.1133 57.2773 17.1133 57.3711C17.1133 58.293 16.9844 58.8672 16.7266 59.0938C16.3516 59.0312 15.8633 59 15.2617 59C14.7148 59 14.207 59.0273 13.7383 59.082C13.6836 59.043 13.6133 58.9883 13.5273 58.918C13.4492 58.8477 13.3398 58.668 13.1992 58.3789C13.0586 58.0898 12.9883 57.7656 12.9883 57.4062ZM8.71094 57.2305C9.42188 57.2305 10.1914 57.0352 11.0195 56.6445C11.8477 56.2461 12.3477 55.8867 12.5195 55.5664V53.4922C10.3867 53.875 8.94531 54.2188 8.19531 54.5234C7.45312 54.8281 7.08203 55.2578 7.08203 55.8125C7.08203 56.7578 7.625 57.2305 8.71094 57.2305ZM27.9648 53.5625V50.5039C27.5508 49.7617 27.0039 49.1836 26.3242 48.7695C25.6445 48.3555 24.9414 48.1484 24.2148 48.1484C23.2148 48.1484 22.3711 48.543 21.6836 49.332C21.0039 50.1133 20.6641 51.2539 20.6641 52.7539C20.6641 54.1914 21.0312 55.3125 21.7656 56.1172C22.5 56.9219 23.3711 57.3242 24.3789 57.3242C24.8164 57.3242 25.2461 57.2461 25.668 57.0898C26.0898 56.9258 26.4727 56.6914 26.8164 56.3867C27.1602 56.082 27.4375 55.6875 27.6484 55.2031C27.8594 54.7109 27.9648 54.1641 27.9648 53.5625ZM30.625 43.2031V56.0586C30.625 56.168 30.6328 56.2617 30.6484 56.3398C30.6641 56.4102 30.6953 56.4883 30.7422 56.5742C30.7969 56.6523 30.8828 56.7148 31 56.7617C31.1172 56.8086 31.2695 56.8359 31.457 56.8438C32.1914 56.875 32.5586 57.0391 32.5586 57.3359C32.5586 58.2734 32.4258 58.8594 32.1602 59.0938C31.7305 59.0312 31.2656 59 30.7656 59C30.0625 59 29.375 59.0312 28.7031 59.0938C28.2109 58.8672 27.9648 58.3242 27.9648 57.4648V57.3594C27.543 57.9844 26.9453 58.4688 26.1719 58.8125C25.3984 59.1484 24.6016 59.3164 23.7812 59.3164C23.0312 59.3164 22.3125 59.1758 21.625 58.8945C20.9375 58.6133 20.3125 58.2109 19.75 57.6875C19.1953 57.1562 18.75 56.4648 18.4141 55.6133C18.0781 54.7617 17.9102 53.8086 17.9102 52.7539C17.9102 51.6992 18.0859 50.7461 18.4375 49.8945C18.7891 49.043 19.2578 48.3555 19.8438 47.832C20.4375 47.3008 21.0977 46.8945 21.8242 46.6133C22.5508 46.332 23.3086 46.1875 24.0977 46.1797H24.168C25.707 46.1797 26.9727 46.7539 27.9648 47.9023V44.832C27.9648 44.418 27.8438 44.125 27.6016 43.9531C27.3672 43.7812 26.9102 43.6797 26.2305 43.6484C26.1289 43.625 26.0625 43.5742 26.0312 43.4961C26.0078 43.418 25.9961 43.25 25.9961 42.9922C25.9961 42.5938 26.0391 42.2422 26.125 41.9375C26.2109 41.6328 26.2969 41.457 26.3828 41.4102C27.0312 41.4961 27.6523 41.5391 28.2461 41.5391C28.5977 41.5391 28.9688 41.5195 29.3594 41.4805C29.75 41.4336 29.957 41.4102 29.9805 41.4102C30.2539 41.4102 30.4297 41.4805 30.5078 41.6211C30.5938 41.7539 30.6367 42.0664 30.6367 42.5586C30.6367 42.6133 30.6328 42.7148 30.625 42.8633C30.625 43.0039 30.625 43.1172 30.625 43.2031ZM38.1719 49.332L40.832 55.7773L43.2109 49.3555C43.25 49.2383 43.2695 49.1328 43.2695 49.0391C43.2695 48.7422 43.0898 48.5938 42.7305 48.5938C42.3164 48.5938 42.1094 48.4336 42.1094 48.1133V48.0312C42.2031 47.1016 42.3359 46.5469 42.5078 46.3672C43.2344 46.4531 44.0586 46.4961 44.9805 46.4961C45.957 46.4961 46.8203 46.4531 47.5703 46.3672C47.875 46.5156 48.0273 46.8867 48.0273 47.4805C48.0273 47.6602 48 47.8438 47.9453 48.0312C47.9062 48.2188 47.7695 48.3594 47.5352 48.4531C47.3086 48.5469 47.0508 48.5938 46.7617 48.5938C46.668 48.5938 46.582 48.6016 46.5039 48.6172C46.4336 48.625 46.3711 48.6484 46.3164 48.6875C46.2617 48.7188 46.2148 48.7461 46.1758 48.7695C46.1445 48.7852 46.1094 48.8281 46.0703 48.8984C46.0312 48.9609 46.0039 49.0039 45.9883 49.0273C45.9805 49.043 45.9609 49.0938 45.9297 49.1797C45.8984 49.2656 45.8789 49.3164 45.8711 49.332L43.0586 56.1641C42.9961 56.3203 42.9102 56.5391 42.8008 56.8203C42.6914 57.0938 42.6094 57.3008 42.5547 57.4414C42.5 57.5742 42.4219 57.7422 42.3203 57.9453C42.2266 58.1484 42.1367 58.3008 42.0508 58.4023C41.9727 58.4961 41.8711 58.5977 41.7461 58.707C41.6289 58.8164 41.4961 58.8945 41.3477 58.9414C41.207 58.9805 41.0469 59 40.8672 59C40.6328 59 40.4258 58.9727 40.2461 58.918C40.0742 58.8555 39.9336 58.7852 39.8242 58.707C39.7148 58.6289 39.6055 58.4961 39.4961 58.3086C39.3867 58.1133 39.2969 57.9375 39.2266 57.7812C39.1641 57.6172 39.0664 57.3711 38.9336 57.043C38.8008 56.707 38.6797 56.4141 38.5703 56.1641L35.5117 49.3086C35.5039 49.2852 35.4805 49.2266 35.4414 49.1328C35.4023 49.0391 35.375 48.9805 35.3594 48.957C35.3438 48.9258 35.3086 48.8789 35.2539 48.8164C35.207 48.7461 35.1562 48.6992 35.1016 48.6758C35.0547 48.6523 34.9883 48.6289 34.9023 48.6055C34.8242 48.582 34.7305 48.5703 34.6211 48.5703C34.332 48.5703 34.0703 48.5234 33.8359 48.4297C33.6094 48.3359 33.4766 48.1953 33.4375 48.0078C33.3828 47.75 33.3555 47.5078 33.3555 47.2812C33.3555 46.7891 33.5078 46.4844 33.8125 46.3672C34.5625 46.4531 35.4258 46.4961 36.4023 46.4961C37.3867 46.4961 38.2891 46.4531 39.1094 46.3672C39.2812 46.5469 39.4141 47.0938 39.5078 48.0078V48.0898C39.5078 48.4102 39.2617 48.5703 38.7695 48.5703C38.3242 48.5703 38.1016 48.7188 38.1016 49.0156C38.1016 49.125 38.125 49.2305 38.1719 49.332ZM61.0938 52.0742C61.0938 52.4336 61 52.7109 60.8125 52.9062C60.6328 53.0938 60.2891 53.1875 59.7812 53.1875H51.6953C51.7266 53.8984 51.8516 54.5117 52.0703 55.0273C52.2891 55.543 52.5781 55.9492 52.9375 56.2461C53.2969 56.5352 53.6914 56.75 54.1211 56.8906C54.5508 57.0234 55.0195 57.0898 55.5273 57.0898C56.2383 57.0898 56.9648 56.9648 57.707 56.7148C58.4492 56.4648 59.1211 56.1133 59.7227 55.6602C60.168 56.1836 60.3906 56.6992 60.3906 57.207C60.3906 57.543 60.168 57.875 59.7227 58.2031C59.2773 58.5234 58.6758 58.7891 57.918 59C57.1602 59.2109 56.3711 59.3164 55.5508 59.3164C54.8789 59.3164 54.2383 59.25 53.6289 59.1172C53.0273 58.9844 52.4336 58.7539 51.8477 58.4258C51.2695 58.0898 50.7695 57.668 50.3477 57.1602C49.9258 56.6523 49.5859 56 49.3281 55.2031C49.0703 54.4062 48.9414 53.5039 48.9414 52.4961C48.9414 51.5117 49.1289 50.6094 49.5039 49.7891C49.8789 48.9688 50.375 48.3008 50.9922 47.7852C51.6094 47.2617 52.2969 46.8594 53.0547 46.5781C53.8203 46.2969 54.6055 46.1562 55.4102 46.1562C56.0039 46.1562 56.5742 46.2305 57.1211 46.3789C57.668 46.5273 58.1836 46.7617 58.668 47.082C59.1523 47.3945 59.5742 47.7812 59.9336 48.2422C60.293 48.6953 60.5742 49.25 60.7773 49.9062C60.9883 50.5625 61.0938 51.2852 61.0938 52.0742ZM58.7266 51.3711C58.6562 50.2852 58.3125 49.4609 57.6953 48.8984C57.0859 48.3281 56.3555 48.043 55.5039 48.043C54.5977 48.043 53.7734 48.3477 53.0312 48.957C52.2969 49.5586 51.875 50.3633 51.7656 51.3711H58.7266ZM76.7031 59.0938C75.9453 59.0312 75.2617 59 74.6523 59C74.2539 59 73.8203 59.0156 73.3516 59.0469C72.8828 59.0781 72.5742 59.0938 72.4258 59.0938C72.1602 59.0938 72.0273 58.7969 72.0273 58.2031V51.1836C72.0273 50.168 71.8633 49.4258 71.5352 48.957C71.207 48.4805 70.7773 48.2422 70.2461 48.2422C69.6992 48.2422 69.0977 48.3984 68.4414 48.7109C67.793 49.0156 67.1836 49.4062 66.6133 49.8828V56.0586C66.6133 56.1758 66.6172 56.2695 66.625 56.3398C66.6406 56.4023 66.668 56.4766 66.707 56.5625C66.7539 56.6484 66.832 56.7148 66.9414 56.7617C67.0508 56.8008 67.1914 56.8203 67.3633 56.8203C67.6602 56.8203 67.9141 56.8672 68.125 56.9609C68.3359 57.0547 68.4414 57.1953 68.4414 57.3828C68.4414 58.2969 68.3125 58.8672 68.0547 59.0938C67.5781 59.0312 66.6836 59 65.3711 59C64.0586 59 63.1094 59.0312 62.5234 59.0938C62.2656 58.8594 62.1367 58.2891 62.1367 57.3828C62.1367 57.1953 62.2422 57.0547 62.4531 56.9609C62.6641 56.8672 62.918 56.8203 63.2148 56.8203C63.5195 56.8203 63.7188 56.7578 63.8125 56.6328C63.9062 56.5 63.9531 56.3164 63.9531 56.082V49.7891C63.9531 49.375 63.832 49.082 63.5898 48.9102C63.3555 48.7383 62.8984 48.6367 62.2188 48.6055C62.1172 48.582 62.0508 48.5312 62.0195 48.4531C61.9961 48.375 61.9844 48.207 61.9844 47.9492C61.9844 47.5508 62.0273 47.1992 62.1133 46.8945C62.1992 46.5898 62.2852 46.4141 62.3711 46.3672C62.8867 46.4531 63.3906 46.4961 63.8828 46.4961C64.2344 46.4961 64.6055 46.4766 64.9961 46.4375C65.3867 46.3906 65.5938 46.3672 65.6172 46.3672C65.8906 46.3672 66.0664 46.4375 66.1445 46.5781C66.2305 46.7109 66.2734 47.0234 66.2734 47.5156C66.2734 47.5703 66.2695 47.6719 66.2617 47.8203C66.2617 47.9609 66.2617 48.0742 66.2617 48.1602C66.9336 47.5664 67.6953 47.0859 68.5469 46.7188C69.3984 46.3516 70.2188 46.168 71.0078 46.168C72.1016 46.168 72.9883 46.5547 73.668 47.3281C74.3477 48.1016 74.6875 49.3164 74.6875 50.9727V56.0117C74.6875 56.5195 74.8828 56.7891 75.2734 56.8203C75.3516 56.8281 75.4531 56.8359 75.5781 56.8438C75.7109 56.8516 75.8125 56.8594 75.8828 56.8672C75.9609 56.875 76.0547 56.8867 76.1641 56.9023C76.2734 56.9102 76.3594 56.9219 76.4219 56.9375C76.4844 56.9453 76.5547 56.9609 76.6328 56.9844C76.7188 57 76.7852 57.0195 76.832 57.043C76.8789 57.0664 76.9219 57.0938 76.9609 57.125C77.0078 57.1562 77.0391 57.1953 77.0547 57.2422C77.0781 57.2812 77.0898 57.3281 77.0898 57.3828C77.0898 58.2891 76.9609 58.8594 76.7031 59.0938ZM86.043 56.6562C86.2773 57.1016 86.3945 57.5195 86.3945 57.9102C86.3945 58.1289 86.2969 58.3203 86.1016 58.4844C85.9141 58.6406 85.668 58.7617 85.3633 58.8477C85.0586 58.9336 84.7539 58.9961 84.4492 59.0352C84.1445 59.0742 83.8477 59.0938 83.5586 59.0938C83.1211 59.0938 82.7148 59.0312 82.3398 58.9062C81.9648 58.7812 81.6055 58.5781 81.2617 58.2969C80.9258 58.0078 80.6602 57.5938 80.4648 57.0547C80.2695 56.5078 80.1719 55.8594 80.1719 55.1094V48.3125H79.668C78.7461 48.3125 78.2422 48.3164 78.1562 48.3242C77.8984 48.2305 77.7695 47.9297 77.7695 47.4219C77.7695 46.8047 77.9648 46.4961 78.3555 46.4961H80.1719C80.2031 46.2461 80.2305 45.9219 80.2539 45.5234C80.2852 45.1172 80.3125 44.7969 80.3359 44.5625C80.3594 44.3281 80.3945 44.0508 80.4414 43.7305C80.4961 43.4102 80.5664 43.1602 80.6523 42.9805C80.7461 42.793 80.8633 42.6094 81.0039 42.4297C81.1445 42.25 81.3242 42.1211 81.543 42.043C81.7695 41.957 82.0352 41.9141 82.3398 41.9141C82.5508 41.9141 82.7148 41.9492 82.832 42.0195V46.4961H84.3906C85.3203 46.4961 85.8086 46.4766 85.8555 46.4375C86.2461 46.4375 86.4414 46.7734 86.4414 47.4453C86.4414 47.9531 86.3125 48.2539 86.0547 48.3477C85.7969 48.3242 85.293 48.3125 84.543 48.3125H82.832V55.0391C82.832 56.3359 83.2539 56.9844 84.0977 56.9844C84.6445 56.9844 85.293 56.875 86.043 56.6562ZM100.035 47.2109V55.8008C100.035 56.0039 100.039 56.1484 100.047 56.2344C100.055 56.3203 100.074 56.418 100.105 56.5273C100.145 56.6289 100.203 56.6992 100.281 56.7383C100.367 56.7695 100.48 56.8008 100.621 56.832C100.762 56.8555 100.949 56.8672 101.184 56.8672C101.535 56.8672 101.758 56.9102 101.852 56.9961C101.953 57.082 102.004 57.2578 102.004 57.5234C102.004 57.9141 101.957 58.2617 101.863 58.5664C101.777 58.8633 101.695 59.0391 101.617 59.0938C101.047 59.0312 100.52 59 100.035 59C99.7148 59 99.3789 59.0156 99.0273 59.0469C98.6836 59.0781 98.4727 59.0938 98.3945 59.0938C98.082 59.0938 97.8906 59 97.8203 58.8125C97.7578 58.625 97.7266 58.125 97.7266 57.3125C97.1797 57.9453 96.5195 58.4375 95.7461 58.7891C94.9805 59.1406 94.1992 59.3164 93.4023 59.3164C92.8242 59.3164 92.2812 59.2188 91.7734 59.0234C91.2734 58.8359 90.8203 58.5547 90.4141 58.1797C90.0078 57.8047 89.6875 57.3008 89.4531 56.668C89.2188 56.0352 89.1016 55.3125 89.1016 54.5V49.8008C89.1016 49.0586 88.9062 48.6719 88.5156 48.6406C88.4531 48.6328 88.3633 48.625 88.2461 48.6172C88.1367 48.6094 88.0469 48.6016 87.9766 48.5938C87.9141 48.5859 87.8359 48.5781 87.7422 48.5703C87.6484 48.5547 87.5742 48.543 87.5195 48.5352C87.4648 48.5195 87.3984 48.5039 87.3203 48.4883C87.25 48.4648 87.1953 48.4414 87.1562 48.418C87.1172 48.3945 87.0781 48.3672 87.0391 48.3359C87 48.3047 86.9727 48.2695 86.957 48.2305C86.9414 48.1836 86.9336 48.1328 86.9336 48.0781C86.9336 47.1719 87.0625 46.6016 87.3203 46.3672C88.0547 46.4531 88.7305 46.4961 89.3477 46.4961C89.7773 46.4961 90.2148 46.4766 90.6602 46.4375C91.1133 46.3906 91.3477 46.3672 91.3633 46.3672C91.6289 46.3672 91.7617 46.6484 91.7617 47.2109V54.6406C91.7617 55.5 91.9844 56.1445 92.4297 56.5742C92.875 57.0039 93.4453 57.2188 94.1406 57.2188C94.7344 57.2188 95.3242 57.0625 95.9102 56.75C96.5039 56.4375 96.9922 56.0117 97.375 55.4727V49.8008C97.375 49.0586 97.1797 48.6719 96.7891 48.6406C96.7266 48.6328 96.6367 48.625 96.5195 48.6172C96.4102 48.6094 96.3203 48.6016 96.25 48.5938C96.1875 48.5859 96.1094 48.5781 96.0156 48.5703C95.9219 48.5547 95.8477 48.543 95.793 48.5352C95.7383 48.5195 95.6719 48.5039 95.5938 48.4883C95.5234 48.4648 95.4688 48.4414 95.4297 48.418C95.3906 48.3945 95.3516 48.3672 95.3125 48.3359C95.2734 48.3047 95.2461 48.2695 95.2305 48.2305C95.2148 48.1836 95.207 48.1328 95.207 48.0781C95.207 47.1641 95.3359 46.5938 95.5938 46.3672C96.3281 46.4531 97.0039 46.4961 97.6211 46.4961C98.1367 46.4961 98.6602 46.4766 99.1914 46.4375C99.7305 46.3906 100.008 46.3672 100.023 46.3672C100.031 46.3672 100.035 46.6484 100.035 47.2109ZM107.102 47.5156V48.2773C107.453 47.7148 107.977 47.2227 108.672 46.8008C109.367 46.3789 110.031 46.168 110.664 46.168C111.078 46.168 111.473 46.2383 111.848 46.3789C112.223 46.5117 112.547 46.7539 112.82 47.1055C113.102 47.457 113.242 47.8867 113.242 48.3945C113.242 49.7852 112.504 50.4805 111.027 50.4805C110.996 50.4805 110.965 50.4766 110.934 50.4688C110.902 50.4609 110.875 50.4492 110.852 50.4336C110.836 50.418 110.82 50.4023 110.805 50.3867C110.789 50.3711 110.773 50.3477 110.758 50.3164C110.75 50.2852 110.742 50.2578 110.734 50.2344C110.727 50.2109 110.719 50.1758 110.711 50.1289C110.703 50.0742 110.695 50.0312 110.688 50C110.688 49.9688 110.684 49.9258 110.676 49.8711C110.676 49.8086 110.672 49.7578 110.664 49.7188L110.523 48.5C110.312 48.3984 110.082 48.3477 109.832 48.3477C109.379 48.3477 108.922 48.5156 108.461 48.8516C108.008 49.1797 107.672 49.5625 107.453 50V55.9297C107.453 56.0469 107.457 56.1406 107.465 56.2109C107.48 56.2734 107.508 56.3477 107.547 56.4336C107.594 56.5195 107.672 56.5859 107.781 56.6328C107.891 56.6719 108.031 56.6914 108.203 56.6914C108.5 56.6914 108.754 56.7383 108.965 56.832C109.176 56.9258 109.281 57.0664 109.281 57.2539C109.281 57.6289 109.219 58 109.094 58.3672C108.969 58.7344 108.785 58.9766 108.543 59.0938C107.996 59.0312 107.195 59 106.141 59C105.086 59 104.277 59.0312 103.715 59.0938C103.457 58.9766 103.27 58.7383 103.152 58.3789C103.035 58.0117 102.977 57.6367 102.977 57.2539C102.977 57.0664 103.082 56.9258 103.293 56.832C103.504 56.7383 103.758 56.6914 104.055 56.6914C104.359 56.6914 104.559 56.6289 104.652 56.5039C104.746 56.3711 104.793 56.1875 104.793 55.9531V49.7891C104.793 49.375 104.672 49.082 104.43 48.9102C104.195 48.7383 103.738 48.6367 103.059 48.6055C102.957 48.582 102.891 48.5312 102.859 48.4531C102.836 48.375 102.824 48.207 102.824 47.9492C102.824 47.5508 102.867 47.1992 102.953 46.8945C103.039 46.5898 103.125 46.4141 103.211 46.3672C103.766 46.4531 104.309 46.4961 104.84 46.4961C105.168 46.4961 105.512 46.4766 105.871 46.4375C106.238 46.3906 106.434 46.3672 106.457 46.3672C106.73 46.3672 106.906 46.4375 106.984 46.5781C107.062 46.7109 107.102 47.0234 107.102 47.5156ZM126.273 52.0742C126.273 52.4336 126.18 52.7109 125.992 52.9062C125.812 53.0938 125.469 53.1875 124.961 53.1875H116.875C116.906 53.8984 117.031 54.5117 117.25 55.0273C117.469 55.543 117.758 55.9492 118.117 56.2461C118.477 56.5352 118.871 56.75 119.301 56.8906C119.73 57.0234 120.199 57.0898 120.707 57.0898C121.418 57.0898 122.145 56.9648 122.887 56.7148C123.629 56.4648 124.301 56.1133 124.902 55.6602C125.348 56.1836 125.57 56.6992 125.57 57.207C125.57 57.543 125.348 57.875 124.902 58.2031C124.457 58.5234 123.855 58.7891 123.098 59C122.34 59.2109 121.551 59.3164 120.73 59.3164C120.059 59.3164 119.418 59.25 118.809 59.1172C118.207 58.9844 117.613 58.7539 117.027 58.4258C116.449 58.0898 115.949 57.668 115.527 57.1602C115.105 56.6523 114.766 56 114.508 55.2031C114.25 54.4062 114.121 53.5039 114.121 52.4961C114.121 51.5117 114.309 50.6094 114.684 49.7891C115.059 48.9688 115.555 48.3008 116.172 47.7852C116.789 47.2617 117.477 46.8594 118.234 46.5781C119 46.2969 119.785 46.1562 120.59 46.1562C121.184 46.1562 121.754 46.2305 122.301 46.3789C122.848 46.5273 123.363 46.7617 123.848 47.082C124.332 47.3945 124.754 47.7812 125.113 48.2422C125.473 48.6953 125.754 49.25 125.957 49.9062C126.168 50.5625 126.273 51.2852 126.273 52.0742ZM123.906 51.3711C123.836 50.2852 123.492 49.4609 122.875 48.8984C122.266 48.3281 121.535 48.043 120.684 48.043C119.777 48.043 118.953 48.3477 118.211 48.957C117.477 49.5586 117.055 50.3633 116.945 51.3711H123.906ZM145.41 60.5234C145.41 61.2188 145.293 61.8203 145.059 62.3281C144.824 62.8438 144.516 63.2539 144.133 63.5586C143.75 63.8711 143.262 64.1211 142.668 64.3086C142.082 64.4961 141.48 64.6211 140.863 64.6836C140.254 64.7539 139.551 64.7891 138.754 64.7891C137.285 64.7891 136.031 64.6211 134.992 64.2852C133.961 63.957 133.445 63.5156 133.445 62.9609C133.445 61.8203 133.766 60.5312 134.406 59.0938C133.508 58.7891 133.059 58.1562 133.059 57.1953C133.059 56.2734 133.629 55.3438 134.77 54.4062C134.191 53.9766 133.754 53.4648 133.457 52.8711C133.168 52.2773 133.023 51.6602 133.023 51.0195C133.023 50.4102 133.16 49.8164 133.434 49.2383C133.707 48.6523 134.082 48.1328 134.559 47.6797C135.035 47.2266 135.625 46.8633 136.328 46.5898C137.031 46.3086 137.785 46.168 138.59 46.168C139.27 46.168 139.844 46.2266 140.312 46.3438C140.781 46.4609 141.234 46.6523 141.672 46.918C141.68 46.9102 141.762 46.8203 141.918 46.6484C142.074 46.4766 142.219 46.332 142.352 46.2148C142.492 46.0977 142.676 45.9609 142.902 45.8047C143.129 45.6484 143.387 45.5312 143.676 45.4531C143.973 45.3672 144.281 45.3242 144.602 45.3242C145.117 45.3242 145.441 45.3828 145.574 45.5C145.707 45.6094 145.773 45.832 145.773 46.168V46.3672C145.773 46.5391 145.77 46.6797 145.762 46.7891C145.762 46.8984 145.742 47.0039 145.703 47.1055C145.664 47.1992 145.629 47.2734 145.598 47.3281C145.566 47.3828 145.5 47.4336 145.398 47.4805C145.297 47.5273 145.203 47.5625 145.117 47.5859C145.039 47.6016 144.898 47.6172 144.695 47.6328C144.5 47.6484 144.32 47.6562 144.156 47.6562C144 47.6562 143.766 47.6562 143.453 47.6562C143.383 47.6562 143.266 47.6523 143.102 47.6445C142.945 47.6367 142.824 47.6328 142.738 47.6328C143.27 47.9922 143.691 48.4883 144.004 49.1211C144.316 49.7539 144.473 50.4414 144.473 51.1836C144.473 52.4258 143.973 53.4648 142.973 54.3008C141.98 55.1367 140.609 55.5547 138.859 55.5547C138.469 55.5547 138.09 55.5273 137.723 55.4727C137.355 55.4102 137.02 55.3398 136.715 55.2617C136.41 55.1758 136.254 55.1328 136.246 55.1328C135.988 55.6484 135.859 56.1602 135.859 56.668C135.859 56.9102 136.035 57.082 136.387 57.1836C136.738 57.2852 137.195 57.3398 137.758 57.3477C138.32 57.3555 138.938 57.3594 139.609 57.3594C140.289 57.3516 140.969 57.3867 141.648 57.4648C142.328 57.543 142.949 57.6758 143.512 57.8633C144.074 58.0508 144.531 58.3711 144.883 58.8242C145.234 59.2695 145.41 59.8359 145.41 60.5234ZM138.73 53.5625C139.34 53.5625 139.867 53.4922 140.312 53.3516C140.758 53.2031 141.102 53.0039 141.344 52.7539C141.586 52.4961 141.762 52.2227 141.871 51.9336C141.988 51.6367 142.047 51.3125 142.047 50.9609C142.047 50.1875 141.77 49.5234 141.215 48.9688C140.668 48.4141 139.855 48.1367 138.777 48.1367C137.707 48.1367 136.902 48.4102 136.363 48.957C135.824 49.4961 135.555 50.1602 135.555 50.9492C135.555 51.6836 135.809 52.3047 136.316 52.8125C136.832 53.3125 137.637 53.5625 138.73 53.5625ZM137.383 59.5039C136.539 59.4492 135.949 59.3789 135.613 59.293C135.613 59.6289 135.613 59.8789 135.613 60.043C135.621 60.2148 135.633 60.4375 135.648 60.7109C135.672 60.9922 135.703 61.207 135.742 61.3555C135.789 61.5039 135.852 61.6602 135.93 61.8242C136.008 61.9961 136.109 62.125 136.234 62.2109C136.359 62.2969 136.508 62.3555 136.68 62.3867C137.664 62.5664 138.559 62.6562 139.363 62.6562C140.02 62.6562 140.566 62.6094 141.004 62.5156C141.449 62.4297 141.785 62.3008 142.012 62.1289C142.246 61.957 142.406 61.7656 142.492 61.5547C142.586 61.3516 142.633 61.1055 142.633 60.8164C142.633 59.9414 141.645 59.5039 139.668 59.5039H137.383ZM158.711 52.0742C158.711 52.4336 158.617 52.7109 158.43 52.9062C158.25 53.0938 157.906 53.1875 157.398 53.1875H149.312C149.344 53.8984 149.469 54.5117 149.688 55.0273C149.906 55.543 150.195 55.9492 150.555 56.2461C150.914 56.5352 151.309 56.75 151.738 56.8906C152.168 57.0234 152.637 57.0898 153.145 57.0898C153.855 57.0898 154.582 56.9648 155.324 56.7148C156.066 56.4648 156.738 56.1133 157.34 55.6602C157.785 56.1836 158.008 56.6992 158.008 57.207C158.008 57.543 157.785 57.875 157.34 58.2031C156.895 58.5234 156.293 58.7891 155.535 59C154.777 59.2109 153.988 59.3164 153.168 59.3164C152.496 59.3164 151.855 59.25 151.246 59.1172C150.645 58.9844 150.051 58.7539 149.465 58.4258C148.887 58.0898 148.387 57.668 147.965 57.1602C147.543 56.6523 147.203 56 146.945 55.2031C146.688 54.4062 146.559 53.5039 146.559 52.4961C146.559 51.5117 146.746 50.6094 147.121 49.7891C147.496 48.9688 147.992 48.3008 148.609 47.7852C149.227 47.2617 149.914 46.8594 150.672 46.5781C151.438 46.2969 152.223 46.1562 153.027 46.1562C153.621 46.1562 154.191 46.2305 154.738 46.3789C155.285 46.5273 155.801 46.7617 156.285 47.082C156.77 47.3945 157.191 47.7812 157.551 48.2422C157.91 48.6953 158.191 49.25 158.395 49.9062C158.605 50.5625 158.711 51.2852 158.711 52.0742ZM156.344 51.3711C156.273 50.2852 155.93 49.4609 155.312 48.8984C154.703 48.3281 153.973 48.043 153.121 48.043C152.215 48.043 151.391 48.3477 150.648 48.957C149.914 49.5586 149.492 50.3633 149.383 51.3711H156.344ZM168.191 57.4062C167.621 58.0078 166.898 58.4766 166.023 58.8125C165.156 59.1484 164.273 59.3164 163.375 59.3164C162.258 59.3164 161.336 59.0195 160.609 58.4258C159.883 57.832 159.52 56.9727 159.52 55.8477C159.52 54.6445 160.102 53.7383 161.266 53.1289C162.141 52.6602 163.641 52.2539 165.766 51.9102C166.164 51.8398 166.812 51.7383 167.711 51.6055C167.711 50.2773 167.543 49.3633 167.207 48.8633C166.871 48.3633 166.227 48.1133 165.273 48.1133C164.578 48.1133 163.805 48.2695 162.953 48.582C162.102 48.8945 161.422 49.3281 160.914 49.8828C160.281 49.3516 159.965 48.832 159.965 48.3242C159.965 47.8867 160.266 47.5 160.867 47.1641C161.469 46.8203 162.176 46.5703 162.988 46.4141C163.809 46.25 164.629 46.168 165.449 46.168C166.223 46.168 166.898 46.2656 167.477 46.4609C168.062 46.6484 168.578 46.9609 169.023 47.3984C169.469 47.8359 169.805 48.4375 170.031 49.2031C170.266 49.9688 170.383 50.8984 170.383 51.9922V55.7422C170.383 56.0625 170.406 56.3047 170.453 56.4688C170.508 56.625 170.566 56.7227 170.629 56.7617C170.691 56.793 170.793 56.8164 170.934 56.832C171.176 56.8555 171.355 56.8789 171.473 56.9023C171.59 56.918 171.727 56.9453 171.883 56.9844C172.039 57.0234 172.148 57.0742 172.211 57.1367C172.281 57.1992 172.316 57.2773 172.316 57.3711C172.316 58.293 172.188 58.8672 171.93 59.0938C171.555 59.0312 171.066 59 170.465 59C169.918 59 169.41 59.0273 168.941 59.082C168.887 59.043 168.816 58.9883 168.73 58.918C168.652 58.8477 168.543 58.668 168.402 58.3789C168.262 58.0898 168.191 57.7656 168.191 57.4062ZM163.914 57.2305C164.625 57.2305 165.395 57.0352 166.223 56.6445C167.051 56.2461 167.551 55.8867 167.723 55.5664V53.4922C165.59 53.875 164.148 54.2188 163.398 54.5234C162.656 54.8281 162.285 55.2578 162.285 55.8125C162.285 56.7578 162.828 57.2305 163.914 57.2305ZM177.438 47.5156V48.2773C177.789 47.7148 178.312 47.2227 179.008 46.8008C179.703 46.3789 180.367 46.168 181 46.168C181.414 46.168 181.809 46.2383 182.184 46.3789C182.559 46.5117 182.883 46.7539 183.156 47.1055C183.438 47.457 183.578 47.8867 183.578 48.3945C183.578 49.7852 182.84 50.4805 181.363 50.4805C181.332 50.4805 181.301 50.4766 181.27 50.4688C181.238 50.4609 181.211 50.4492 181.188 50.4336C181.172 50.418 181.156 50.4023 181.141 50.3867C181.125 50.3711 181.109 50.3477 181.094 50.3164C181.086 50.2852 181.078 50.2578 181.07 50.2344C181.062 50.2109 181.055 50.1758 181.047 50.1289C181.039 50.0742 181.031 50.0312 181.023 50C181.023 49.9688 181.02 49.9258 181.012 49.8711C181.012 49.8086 181.008 49.7578 181 49.7188L180.859 48.5C180.648 48.3984 180.418 48.3477 180.168 48.3477C179.715 48.3477 179.258 48.5156 178.797 48.8516C178.344 49.1797 178.008 49.5625 177.789 50V55.9297C177.789 56.0469 177.793 56.1406 177.801 56.2109C177.816 56.2734 177.844 56.3477 177.883 56.4336C177.93 56.5195 178.008 56.5859 178.117 56.6328C178.227 56.6719 178.367 56.6914 178.539 56.6914C178.836 56.6914 179.09 56.7383 179.301 56.832C179.512 56.9258 179.617 57.0664 179.617 57.2539C179.617 57.6289 179.555 58 179.43 58.3672C179.305 58.7344 179.121 58.9766 178.879 59.0938C178.332 59.0312 177.531 59 176.477 59C175.422 59 174.613 59.0312 174.051 59.0938C173.793 58.9766 173.605 58.7383 173.488 58.3789C173.371 58.0117 173.312 57.6367 173.312 57.2539C173.312 57.0664 173.418 56.9258 173.629 56.832C173.84 56.7383 174.094 56.6914 174.391 56.6914C174.695 56.6914 174.895 56.6289 174.988 56.5039C175.082 56.3711 175.129 56.1875 175.129 55.9531V49.7891C175.129 49.375 175.008 49.082 174.766 48.9102C174.531 48.7383 174.074 48.6367 173.395 48.6055C173.293 48.582 173.227 48.5312 173.195 48.4531C173.172 48.375 173.16 48.207 173.16 47.9492C173.16 47.5508 173.203 47.1992 173.289 46.8945C173.375 46.5898 173.461 46.4141 173.547 46.3672C174.102 46.4531 174.645 46.4961 175.176 46.4961C175.504 46.4961 175.848 46.4766 176.207 46.4375C176.574 46.3906 176.77 46.3672 176.793 46.3672C177.066 46.3672 177.242 46.4375 177.32 46.5781C177.398 46.7109 177.438 47.0234 177.438 47.5156Z" fill="white"/>
<path d="M9.74945 25.44C10.3095 25.58 10.7495 25.9 11.0695 26.4C11.4095 26.88 11.5295 27.41 11.4295 27.99C11.3295 28.63 11.0295 29.15 10.5295 29.55C10.0295 29.93 9.45945 30.07 8.81945 29.97H3.65945C3.07945 29.91 2.59945 29.69 2.21945 29.31C1.83945 28.91 1.62945 28.44 1.58945 27.9C1.54945 27.26 1.72945 26.7 2.12945 26.22C2.54945 25.74 3.07945 25.48 3.71945 25.44V25.29C3.85945 23.13 4.01945 20.98 4.19945 18.84C4.37945 16.68 4.53945 14.52 4.67945 12.36V12.21C4.07945 12.17 3.57945 11.96 3.17945 11.58C2.79945 11.18 2.57945 10.69 2.51945 10.11C2.45945 9.49 2.62945 8.94 3.02945 8.46C3.44945 7.96 3.97945 7.69 4.61945 7.65H10.4095C10.9495 7.65 11.3795 7.83 11.6995 8.19C12.0395 8.53 12.2795 8.99 12.4195 9.57C14.0995 16.81 14.9495 20.46 14.9695 20.52C14.9695 20.44 15.7895 16.79 17.4295 9.57C17.5695 8.99 17.8595 8.53 18.2995 8.19C18.7595 7.83 19.2895 7.65 19.8895 7.65H25.1995C25.7995 7.67 26.2895 7.89 26.6695 8.31C27.0695 8.73 27.2895 9.23 27.3295 9.81C27.3495 10.13 27.3095 10.43 27.2095 10.71C27.1095 10.99 26.9595 11.24 26.7595 11.46C26.5595 11.68 26.3195 11.86 26.0395 12C25.7795 12.12 25.4895 12.19 25.1695 12.21V12.36C25.3095 14.52 25.4695 16.68 25.6495 18.84C25.8295 20.98 25.9995 23.13 26.1595 25.29V25.44C26.7795 25.48 27.2895 25.74 27.6895 26.22C28.1095 26.68 28.2995 27.22 28.2595 27.84C28.2195 28.46 27.9695 28.98 27.5095 29.4C27.0495 29.82 26.4995 30.01 25.8595 29.97H20.3695C19.9295 29.89 19.5395 29.71 19.1995 29.43C18.8795 29.13 18.6495 28.76 18.5095 28.32C18.3495 27.7 18.4195 27.11 18.7195 26.55C19.0395 25.99 19.5095 25.62 20.1295 25.44V15.69H19.8595L18.1195 23.4C17.9395 24.16 17.5595 24.77 16.9795 25.23C16.3995 25.69 15.7295 25.92 14.9695 25.92C14.1495 25.92 13.4495 25.69 12.8695 25.23C12.3095 24.77 11.9295 24.16 11.7295 23.4L9.98945 15.69H9.77945L9.74945 25.44ZM40.3387 18.3C39.7587 18.18 39.2887 17.88 38.9287 17.4C38.5687 16.92 38.4387 16.38 38.5387 15.78C38.5787 15.48 38.6787 15.21 38.8387 14.97C38.9987 14.71 39.1887 14.5 39.4087 14.34C39.6287 14.16 39.8787 14.04 40.1587 13.98C40.4587 13.9 40.7587 13.86 41.0587 13.86H43.8187C44.5187 13.86 45.1087 14.11 45.5887 14.61C46.0887 15.09 46.3387 15.69 46.3387 16.41V24.72C46.3387 25.14 46.5687 25.42 47.0287 25.56C47.4487 25.82 47.7687 26.17 47.9887 26.61C48.2287 27.05 48.2987 27.51 48.1987 27.99C48.1187 28.65 47.8387 29.15 47.3587 29.49C46.8787 29.83 46.2687 30 45.5287 30H42.7987C41.3387 30 40.6087 29.38 40.6087 28.14V27.27C40.4087 27.87 40.0987 28.39 39.6787 28.83C39.3387 29.21 38.8687 29.56 38.2687 29.88C37.6687 30.2 36.8787 30.36 35.8987 30.36C35.2787 30.36 34.6687 30.26 34.0687 30.06C33.4687 29.88 32.9287 29.57 32.4487 29.13C31.9887 28.67 31.6087 28.06 31.3087 27.3C31.0287 26.54 30.8887 25.59 30.8887 24.45V18.27C30.3687 18.17 29.9387 17.92 29.5987 17.52C29.2587 17.12 29.0887 16.65 29.0887 16.11C29.0887 15.49 29.2987 14.96 29.7187 14.52C30.1587 14.08 30.6887 13.86 31.3087 13.86H34.4287C35.1087 13.86 35.6887 14.11 36.1687 14.61C36.6487 15.09 36.8887 15.68 36.8887 16.38V23.25C36.8887 23.87 36.9787 24.3 37.1587 24.54C37.3387 24.78 37.6187 24.9 37.9987 24.9C38.3987 24.9 38.7387 24.79 39.0187 24.57C39.3187 24.33 39.5687 24.03 39.7687 23.67C39.9687 23.29 40.1087 22.85 40.1887 22.35C40.2887 21.83 40.3387 21.3 40.3387 20.76V18.3ZM49.0405 21.9C49.0405 20.62 49.2105 19.46 49.5505 18.42C49.8905 17.38 50.3605 16.5 50.9605 15.78C51.5805 15.04 52.3205 14.47 53.1805 14.07C54.0405 13.67 55.0105 13.47 56.0905 13.47C56.6105 13.47 57.0505 13.52 57.4105 13.62C57.7905 13.7 58.1105 13.81 58.3705 13.95C58.6305 14.09 58.8505 14.24 59.0305 14.4C59.2305 14.56 59.4105 14.71 59.5705 14.85V11.91C58.9705 11.83 58.5005 11.59 58.1605 11.19C57.8405 10.79 57.6805 10.33 57.6805 9.81C57.6805 9.13 57.9005 8.58 58.3405 8.16C58.7805 7.74 59.3105 7.53 59.9305 7.53H63.0205C63.7205 7.53 64.3105 7.78 64.7905 8.28C65.2905 8.76 65.5405 9.34 65.5405 10.02V24.75C65.5405 25.07 65.7505 25.35 66.1705 25.59C66.8105 26.07 67.1305 26.74 67.1305 27.6C67.1305 28.24 66.9105 28.79 66.4705 29.25C66.0505 29.71 65.5105 29.96 64.8505 30H62.1205C61.7405 30 61.4205 29.95 61.1605 29.85C60.9005 29.75 60.6905 29.63 60.5305 29.49C60.3705 29.33 60.2505 29.17 60.1705 29.01C60.1105 28.83 60.0805 28.66 60.0805 28.5V27.66C59.9805 27.92 59.8205 28.21 59.6005 28.53C59.4005 28.83 59.1205 29.12 58.7605 29.4C58.4205 29.66 58.0005 29.88 57.5005 30.06C57.0005 30.26 56.3905 30.36 55.6705 30.36C54.6705 30.36 53.7605 30.16 52.9405 29.76C52.1205 29.36 51.4205 28.79 50.8405 28.05C50.2605 27.31 49.8105 26.42 49.4905 25.38C49.1905 24.34 49.0405 23.18 49.0405 21.9ZM55.0405 21.93C55.0405 22.95 55.2505 23.76 55.6705 24.36C56.1105 24.96 56.6705 25.26 57.3505 25.26C57.9505 25.26 58.4905 25 58.9705 24.48C59.4505 23.96 59.6905 23.14 59.6905 22.02C59.6905 21.56 59.6405 21.13 59.5405 20.73C59.4605 20.33 59.3205 19.98 59.1205 19.68C58.9405 19.38 58.7005 19.14 58.4005 18.96C58.1205 18.78 57.7905 18.69 57.4105 18.69C56.7705 18.69 56.2105 18.97 55.7305 19.53C55.2705 20.07 55.0405 20.87 55.0405 21.93ZM68.1421 21.9C68.1421 20.62 68.3121 19.46 68.6521 18.42C68.9921 17.38 69.4621 16.5 70.0621 15.78C70.6821 15.04 71.4221 14.47 72.2821 14.07C73.1421 13.67 74.1121 13.47 75.1921 13.47C75.7121 13.47 76.1521 13.52 76.5121 13.62C76.8921 13.7 77.2121 13.81 77.4721 13.95C77.7321 14.09 77.9521 14.24 78.1321 14.4C78.3321 14.56 78.5121 14.71 78.6721 14.85V11.91C78.0721 11.83 77.6021 11.59 77.2621 11.19C76.9421 10.79 76.7821 10.33 76.7821 9.81C76.7821 9.13 77.0021 8.58 77.4421 8.16C77.8821 7.74 78.4121 7.53 79.0321 7.53H82.1221C82.8221 7.53 83.4121 7.78 83.8921 8.28C84.3921 8.76 84.6421 9.34 84.6421 10.02V24.75C84.6421 25.07 84.8521 25.35 85.2721 25.59C85.9121 26.07 86.2321 26.74 86.2321 27.6C86.2321 28.24 86.0121 28.79 85.5721 29.25C85.1521 29.71 84.6121 29.96 83.9521 30H81.2221C80.8421 30 80.5221 29.95 80.2621 29.85C80.0021 29.75 79.7921 29.63 79.6321 29.49C79.4721 29.33 79.3521 29.17 79.2721 29.01C79.2121 28.83 79.1821 28.66 79.1821 28.5V27.66C79.0821 27.92 78.9221 28.21 78.7021 28.53C78.5021 28.83 78.2221 29.12 77.8621 29.4C77.5221 29.66 77.1021 29.88 76.6021 30.06C76.1021 30.26 75.4921 30.36 74.7721 30.36C73.7721 30.36 72.8621 30.16 72.0421 29.76C71.2221 29.36 70.5221 28.79 69.9421 28.05C69.3621 27.31 68.9121 26.42 68.5921 25.38C68.2921 24.34 68.1421 23.18 68.1421 21.9ZM74.1421 21.93C74.1421 22.95 74.3521 23.76 74.7721 24.36C75.2121 24.96 75.7721 25.26 76.4521 25.26C77.0521 25.26 77.5921 25 78.0721 24.48C78.5521 23.96 78.7921 23.14 78.7921 22.02C78.7921 21.56 78.7421 21.13 78.6421 20.73C78.5621 20.33 78.4221 19.98 78.2221 19.68C78.0421 19.38 77.8021 19.14 77.5021 18.96C77.2221 18.78 76.8921 18.69 76.5121 18.69C75.8721 18.69 75.3121 18.97 74.8321 19.53C74.3721 20.07 74.1421 20.87 74.1421 21.93ZM86.38 33C86.38 32.16 86.67 31.45 87.25 30.87C87.83 30.31 88.54 30.03 89.38 30.03C90.02 30.03 90.58 30.21 91.06 30.57C91.56 30.93 91.92 31.4 92.14 31.98C92.42 32.48 92.68 32.73 92.92 32.73C93.08 32.73 93.21 32.65 93.31 32.49C93.43 32.33 93.49 32.14 93.49 31.92C93.49 31.68 93.43 31.41 93.31 31.11L88.21 18.27C87.69 18.11 87.29 17.84 87.01 17.46C86.73 17.06 86.59 16.61 86.59 16.11C86.59 15.47 86.82 14.94 87.28 14.52C87.74 14.08 88.28 13.86 88.9 13.86H93.13C93.73 13.94 94.23 14.21 94.63 14.67C95.05 15.13 95.26 15.7 95.26 16.38C95.26 16.76 95.18 17.12 95.02 17.46C94.86 17.78 94.6 18.05 94.24 18.27L95.77 25.44H95.89L97.51 18.27C97.17 17.99 96.93 17.69 96.79 17.37C96.65 17.05 96.58 16.68 96.58 16.26C96.58 15.94 96.64 15.64 96.76 15.36C96.9 15.06 97.07 14.8 97.27 14.58C97.49 14.36 97.74 14.19 98.02 14.07C98.32 13.93 98.63 13.86 98.95 13.86H102.46C103.06 13.88 103.58 14.11 104.02 14.55C104.48 14.97 104.71 15.51 104.71 16.17C104.71 16.63 104.58 17.06 104.32 17.46C104.06 17.84 103.7 18.11 103.24 18.27L98.95 31.02C98.57 32.12 98.11 33.04 97.57 33.78C97.03 34.54 96.43 35.14 95.77 35.58C95.13 36.04 94.45 36.36 93.73 36.54C93.03 36.74 92.33 36.84 91.63 36.84C90.67 36.84 89.85 36.71 89.17 36.45C88.51 36.19 87.97 35.87 87.55 35.49C87.13 35.11 86.83 34.69 86.65 34.23C86.47 33.79 86.38 33.38 86.38 33ZM121.267 25.47C121.887 25.51 122.407 25.75 122.827 26.19C123.247 26.61 123.457 27.12 123.457 27.72C123.457 28.36 123.237 28.9 122.797 29.34C122.357 29.78 121.827 30 121.207 30H115.147C114.527 29.98 113.997 29.76 113.557 29.34C113.137 28.9 112.927 28.36 112.927 27.72C112.927 27.14 113.137 26.63 113.557 26.19C113.977 25.75 114.487 25.51 115.087 25.47V12.24C114.487 12.2 113.977 11.97 113.557 11.55C113.137 11.13 112.927 10.59 112.927 9.93C112.927 9.33 113.137 8.81 113.557 8.37C113.997 7.93 114.517 7.7 115.117 7.68H123.487C124.047 7.68 124.627 7.71 125.227 7.77C125.827 7.81 126.387 7.94 126.907 8.16C127.527 8.42 128.087 8.79 128.587 9.27C129.107 9.73 129.547 10.28 129.907 10.92C130.287 11.54 130.577 12.24 130.777 13.02C130.997 13.78 131.107 14.58 131.107 15.42C131.107 16.24 131.007 17.04 130.807 17.82C130.607 18.58 130.327 19.29 129.967 19.95C129.607 20.59 129.167 21.16 128.647 21.66C128.147 22.14 127.577 22.5 126.937 22.74C126.497 22.94 125.987 23.07 125.407 23.13C124.847 23.19 124.257 23.22 123.637 23.22H121.267V25.47ZM122.737 18.27C123.577 18.27 124.167 18.02 124.507 17.52C124.867 17 125.047 16.31 125.047 15.45C125.047 14.51 124.877 13.81 124.537 13.35C124.197 12.87 123.627 12.63 122.827 12.63H121.267V18.27H122.737ZM131.509 25.59C131.509 24.45 131.799 23.53 132.379 22.83C132.959 22.13 133.659 21.6 134.479 21.24C135.299 20.88 136.139 20.65 136.999 20.55C137.879 20.43 138.599 20.37 139.159 20.37H139.999V19.47C139.999 19.05 139.829 18.75 139.489 18.57C139.169 18.39 138.809 18.3 138.409 18.3C138.129 18.3 137.859 18.34 137.599 18.42C137.359 18.48 137.109 18.56 136.849 18.66C136.609 18.74 136.349 18.81 136.069 18.87C135.809 18.93 135.539 18.96 135.259 18.96C134.639 18.96 134.089 18.73 133.609 18.27C133.129 17.81 132.889 17.25 132.889 16.59C132.889 16.05 133.049 15.59 133.369 15.21C133.709 14.81 134.159 14.48 134.719 14.22C135.299 13.96 135.969 13.77 136.729 13.65C137.489 13.53 138.289 13.47 139.129 13.47C141.349 13.47 143.049 14.05 144.229 15.21C145.429 16.35 146.029 18.02 146.029 20.22V24.75C146.029 25.11 146.099 25.36 146.239 25.5C146.659 25.7 146.999 25.98 147.259 26.34C147.539 26.7 147.679 27.11 147.679 27.57C147.679 28.27 147.449 28.85 146.989 29.31C146.549 29.77 145.999 30 145.339 30H142.639C142.299 30 141.989 29.94 141.709 29.82C141.449 29.7 141.229 29.55 141.049 29.37C140.889 29.17 140.769 28.96 140.689 28.74C140.629 28.52 140.609 28.32 140.629 28.14L140.659 27.69H140.539C140.439 27.95 140.289 28.22 140.089 28.5C139.889 28.78 139.619 29.06 139.279 29.34C138.939 29.6 138.529 29.82 138.049 30C137.569 30.18 136.999 30.27 136.339 30.27C135.679 30.27 135.059 30.16 134.479 29.94C133.899 29.72 133.389 29.4 132.949 28.98C132.509 28.56 132.159 28.07 131.899 27.51C131.639 26.93 131.509 26.29 131.509 25.59ZM137.299 24.96C137.299 25.36 137.399 25.68 137.599 25.92C137.799 26.14 138.039 26.25 138.319 26.25C138.719 26.25 139.109 26.04 139.489 25.62C139.889 25.2 140.089 24.59 140.089 23.79V23.01H139.759C139.299 23.01 138.909 23.07 138.589 23.19C138.289 23.31 138.039 23.46 137.839 23.64C137.639 23.82 137.499 24.03 137.419 24.27C137.339 24.49 137.299 24.72 137.299 24.96ZM149.503 18.27C148.963 18.11 148.533 17.81 148.213 17.37C147.913 16.93 147.783 16.44 147.823 15.9C147.863 15.28 148.123 14.78 148.603 14.4C149.083 14 149.623 13.82 150.223 13.86H154.633C155.373 14.02 155.913 14.46 156.253 15.18C156.373 15.48 156.433 15.79 156.433 16.11C156.453 16.41 156.403 16.7 156.283 16.98C156.183 17.26 156.023 17.51 155.803 17.73C155.603 17.95 155.353 18.13 155.053 18.27L155.803 24.96H155.923L157.363 16.44C157.423 15.74 157.693 15.15 158.173 14.67C158.653 14.19 159.243 13.91 159.943 13.83C160.723 13.77 161.413 13.99 162.013 14.49C162.613 14.97 162.963 15.61 163.063 16.41L164.473 24.96H164.623L165.343 18.27C164.643 17.95 164.203 17.4 164.023 16.62C163.943 16.32 163.933 16.02 163.993 15.72C164.053 15.42 164.163 15.15 164.323 14.91C164.483 14.65 164.683 14.43 164.923 14.25C165.183 14.07 165.473 13.94 165.793 13.86H170.653C171.113 13.9 171.513 14.07 171.853 14.37C172.213 14.67 172.453 15.06 172.573 15.54C172.653 15.84 172.663 16.14 172.603 16.44C172.563 16.72 172.463 16.99 172.303 17.25C172.163 17.49 171.973 17.7 171.733 17.88C171.493 18.06 171.223 18.19 170.923 18.27L169.273 26.58C169.093 27.5 168.683 28.27 168.043 28.89C167.423 29.51 166.643 29.89 165.703 30.03C165.123 30.11 164.563 30.08 164.023 29.94C163.503 29.78 163.023 29.54 162.583 29.22C162.163 28.88 161.803 28.47 161.503 27.99C161.223 27.51 161.053 26.99 160.993 26.43L160.303 21.21H160.123L159.493 26.46C159.333 27.42 158.923 28.22 158.263 28.86C157.623 29.48 156.823 29.86 155.863 30C155.283 30.08 154.723 30.05 154.183 29.91C153.663 29.75 153.183 29.51 152.743 29.19C152.323 28.85 151.963 28.44 151.663 27.96C151.383 27.48 151.203 26.96 151.123 26.4L149.503 18.27ZM179.894 30.36C179.294 30.36 178.664 30.31 178.004 30.21C177.364 30.11 176.734 29.95 176.114 29.73C175.514 29.51 174.974 29.24 174.494 28.92C174.014 28.58 173.654 28.19 173.414 27.75C173.274 27.41 173.194 27.07 173.174 26.73C173.154 26.37 173.194 26.03 173.294 25.71C173.414 25.39 173.584 25.1 173.804 24.84C174.044 24.58 174.324 24.36 174.644 24.18C174.984 24.02 175.324 23.93 175.664 23.91C176.004 23.89 176.334 23.93 176.654 24.03C176.994 24.13 177.304 24.3 177.584 24.54C177.864 24.76 178.094 25.04 178.274 25.38C178.354 25.52 178.494 25.62 178.694 25.68C178.914 25.74 179.204 25.77 179.564 25.77C180.124 25.77 180.494 25.69 180.674 25.53C180.854 25.35 180.944 25.13 180.944 24.87C180.944 24.55 180.824 24.32 180.584 24.18C180.344 24.04 179.984 23.89 179.504 23.73L178.424 23.34C177.824 23.14 177.234 22.91 176.654 22.65C176.094 22.37 175.584 22.04 175.124 21.66C174.664 21.26 174.294 20.79 174.014 20.25C173.734 19.71 173.594 19.07 173.594 18.33C173.594 17.37 173.814 16.58 174.254 15.96C174.694 15.34 175.244 14.85 175.904 14.49C176.584 14.11 177.314 13.85 178.094 13.71C178.874 13.55 179.614 13.47 180.314 13.47C180.894 13.47 181.504 13.53 182.144 13.65C182.804 13.75 183.414 13.91 183.974 14.13C184.534 14.35 185.024 14.65 185.444 15.03C185.864 15.39 186.154 15.83 186.314 16.35C186.474 17.49 186.084 18.4 185.144 19.08C184.824 19.32 184.484 19.47 184.124 19.53C183.784 19.59 183.444 19.59 183.104 19.53C182.764 19.47 182.434 19.35 182.114 19.17C181.814 18.99 181.544 18.74 181.304 18.42C181.244 18.32 181.144 18.24 181.004 18.18C180.884 18.12 180.724 18.09 180.524 18.09C180.124 18.09 179.854 18.17 179.714 18.33C179.594 18.47 179.534 18.66 179.534 18.9C179.534 19.12 179.594 19.31 179.714 19.47C179.834 19.63 179.994 19.77 180.194 19.89C180.394 19.99 180.614 20.08 180.854 20.16C181.114 20.24 181.354 20.31 181.574 20.37L181.784 20.4C182.384 20.56 182.984 20.76 183.584 21C184.184 21.22 184.724 21.52 185.204 21.9C185.704 22.26 186.114 22.71 186.434 23.25C186.754 23.79 186.914 24.44 186.914 25.2C186.914 26.1 186.704 26.88 186.284 27.54C185.884 28.18 185.344 28.71 184.664 29.13C184.004 29.55 183.254 29.86 182.414 30.06C181.594 30.26 180.754 30.36 179.894 30.36Z" fill="#ED9026"/>
<path d="M215.862 5.49586C216.143 5.4835 216.503 5.39213 216.742 5.57103C216.992 5.75786 217.265 5.92393 217.52 6.10595C218.192 6.58567 218.688 7.26283 219.156 7.9311C220.123 9.31339 220.722 11.1439 220.494 12.8635C220.445 13.2333 220.316 13.7569 219.986 13.965C219.767 14.1033 219.447 14.5198 219.18 14.5315C218.741 14.5508 218.293 14.6178 217.868 14.4965C217.389 14.3598 216.971 14.079 216.548 13.8125C216.167 13.5728 215.978 13.167 215.765 12.7846C215.513 12.3325 215.219 11.8953 214.948 11.4588C214.427 10.6204 214.217 9.50946 214.174 8.52929C214.145 7.86393 213.978 7.17338 214.356 6.62011C214.573 6.30196 214.793 5.95124 214.973 5.61077C215.053 5.46121 215.724 5.45765 215.79 5.57492" stroke="white" stroke-linecap="round"/>
<path d="M207.813 1.58556C208.698 1.5467 209.426 1.65988 210.012 2.39956C210.35 2.82732 210.707 3.19421 210.867 3.73205C211.038 4.30631 211.32 4.84486 211.506 5.41129C211.756 6.17523 211.769 6.9899 211.804 7.78418C211.836 8.51247 211.48 9.26593 210.823 9.63152C210.191 9.98274 209.355 9.72967 208.766 9.45205C207.785 8.98952 206.771 7.94919 206.452 6.8768C206.302 6.36984 206.019 5.88344 205.818 5.39128C205.683 5.06038 205.796 4.51935 205.615 4.22407C205.258 3.6435 205.685 2.6143 206.095 2.19219C206.477 1.79818 207.181 1.7764 207.662 1.59221" stroke="white" stroke-linecap="round"/>
<path d="M200.441 5.09628C202.398 4.83924 203.009 6.86306 203.688 8.29657C203.983 8.91788 204.133 9.69437 204.163 10.3793C204.183 10.8166 204.328 11.4165 204.185 11.8369C203.969 12.4756 203.318 13.0274 202.695 13.2302C201.615 13.5818 200.664 12.9515 199.849 12.2549C198.842 11.3947 198.33 9.7728 198.238 8.48958C198.191 7.83629 198.055 7.30436 198.25 6.65109C198.376 6.2279 198.557 5.83892 198.946 5.60037C199.162 5.46733 199.265 5.14792 199.57 5.13453C199.759 5.12621 199.949 5.1179 200.138 5.10958" stroke="white" stroke-linecap="round"/>
<path d="M197.508 14.3306C197.902 14.3133 198.314 14.2381 198.687 14.3969C198.975 14.5195 199.181 14.7905 199.433 14.9712C200.077 15.433 200.698 16.2109 201.036 16.9242C201.353 17.5919 201.721 18.222 201.813 18.9641C201.899 19.6534 202.087 20.4916 201.944 21.1884C201.766 22.0641 201.296 22.5518 200.478 22.8336C200.074 22.9728 199.682 23.0372 199.253 23.056C198.918 23.0707 198.045 22.9706 197.872 22.6234C197.699 22.2768 197.297 22.011 197.072 21.6932C196.762 21.2544 196.461 20.8461 196.254 20.3464C195.974 19.6702 195.738 18.9513 195.704 18.187C195.669 17.3884 195.783 16.6965 195.914 15.9562C196.027 15.3166 196.491 14.6788 197.143 14.6502" stroke="white" stroke-linecap="round"/>
<path d="M211.251 14.3618C210.387 13.9301 209.466 14.0378 208.57 14.2538C208.269 14.3688 207.918 14.485 207.652 14.6489C207.364 14.8256 207.13 15.0463 206.889 15.3096C206.414 15.8277 206.091 16.557 206.122 17.2676L206.175 18.4872C206.19 18.8304 206.416 19.2579 206.532 19.5825C206.853 20.4838 206.322 21.2783 205.98 22.0435C205.643 22.8001 205.232 23.9217 204.534 24.4328C204.236 24.6506 204.289 25.1859 204.174 25.477C204.028 25.851 203.942 26.3783 203.959 26.7766C204.007 27.8563 204.14 28.7846 204.762 29.7085C205.219 30.3874 206.23 31.2415 207.107 31.2181C207.89 31.1972 208.616 31.107 209.322 30.7338C210.015 30.3674 210.674 30.0468 211.242 29.4884C211.742 28.9966 212.302 28.5373 212.783 28.0339C213.18 27.6187 213.638 27.388 214.114 27.0903C214.792 26.6672 215.685 26.4697 216.45 26.2602C217.307 26.0257 218.188 25.9058 219.038 25.6269C220.005 25.3098 220.886 24.8678 221.497 24.0067C222.077 23.1895 222.081 22.2942 222.039 21.3239C222.011 20.6957 221.904 19.9289 221.531 19.3968C221.371 19.168 221.077 19.053 220.838 18.9399C220.564 18.8107 220.313 18.6294 220.04 18.4911C219.486 18.2109 218.705 18.1001 218.091 18.0929C217.545 18.0866 216.977 17.9483 216.437 17.972C216.002 17.9912 215.544 17.8086 215.18 17.5757C214.631 17.2244 214.066 16.8659 213.508 16.5383C213.354 16.4482 213.146 16.0348 213.027 15.8785C212.876 15.6794 212.694 15.4154 212.488 15.2751C212.078 14.9946 211.678 14.5752 211.251 14.3618Z" stroke="white" stroke-linecap="round"/>
<path d="M202.995 45.1074C202.789 45.1074 202.525 45.0523 202.356 45.1904C202.18 45.3346 201.986 45.4643 201.806 45.6051C201.332 45.9763 200.992 46.4857 200.672 46.9877C200.012 48.026 199.634 49.3793 199.855 50.6252C199.903 50.8931 200.014 51.2706 200.261 51.4117C200.425 51.5055 200.671 51.7988 200.866 51.7988C201.187 51.7988 201.515 51.8333 201.821 51.7312C202.166 51.6163 202.461 51.3983 202.761 51.1905C203.031 51.0037 203.156 50.7018 203.299 50.4163C203.468 50.0788 203.668 49.7508 203.852 49.424C204.205 48.7963 204.322 47.9799 204.322 47.2642C204.322 46.7783 204.422 46.2697 204.129 45.8786C203.96 45.6537 203.789 45.4051 203.646 45.1627C203.584 45.0563 203.094 45.0752 203.05 45.1627" stroke="#ED9026" stroke-linecap="round"/>
<path d="M208.736 42C208.09 42 207.562 42.1058 207.16 42.6636C206.927 42.9862 206.678 43.265 206.579 43.6621C206.473 44.0861 206.284 44.4876 206.167 44.9064C206.009 45.4711 206.026 46.0653 206.026 46.6453C206.026 47.1771 206.309 47.7148 206.8 47.9602C207.272 48.1959 207.873 47.9847 208.293 47.7636C208.993 47.3951 209.699 46.6044 209.897 45.8127C209.991 45.4384 210.181 45.0748 210.312 44.7097C210.399 44.4643 210.3 44.0736 210.422 43.8526C210.664 43.418 210.319 42.6816 210.008 42.3871C209.716 42.1122 209.203 42.1188 208.846 42" stroke="#ED9026" stroke-linecap="round"/>
<path d="M214.221 44.3226C212.787 44.1979 212.406 45.6925 211.957 46.7589C211.762 47.2212 211.677 47.7919 211.677 48.292C211.677 48.6114 211.591 49.0532 211.708 49.355C211.886 49.8136 212.378 50.1949 212.838 50.3228C213.637 50.5445 214.31 50.0546 214.882 49.5209C215.588 48.8618 215.909 47.6633 215.935 46.7251C215.949 46.2475 216.03 45.8555 215.868 45.3856C215.762 45.0812 215.618 44.8036 215.327 44.6421C215.165 44.5521 215.08 44.3226 214.857 44.3226C214.719 44.3226 214.58 44.3226 214.442 44.3226" stroke="#ED9026" stroke-linecap="round"/>
<path d="M216.654 50.9587C216.366 50.9587 216.064 50.9171 215.797 51.0447C215.591 51.1433 215.45 51.3474 215.272 51.4872C214.817 51.8443 214.39 52.4312 214.166 52.9618C213.956 53.4586 213.708 53.9295 213.665 54.4734C213.625 54.9785 213.515 55.5954 213.64 56.0986C213.798 56.7312 214.157 57.0715 214.762 57.2507C215.06 57.3392 215.348 57.3736 215.662 57.3736C215.906 57.3736 216.539 57.2727 216.654 57.0141C216.769 56.756 217.054 56.5494 217.207 56.3106C217.419 55.9809 217.625 55.6737 217.76 55.3029C217.943 54.8011 218.092 54.2696 218.092 53.7115C218.092 53.1284 217.987 52.6277 217.868 52.0924C217.765 51.6299 217.406 51.1799 216.931 51.1799" stroke="#ED9026" stroke-linecap="round"/>
<path d="M206.639 51.4213C207.255 51.079 207.93 51.128 208.59 51.2568C208.813 51.331 209.072 51.4044 209.272 51.5154C209.487 51.6349 209.665 51.7883 209.849 51.9724C210.211 52.3348 210.47 52.8559 210.47 53.3749V54.2654C210.47 54.516 210.32 54.8348 210.246 55.0751C210.041 55.7422 210.453 56.3043 210.726 56.851C210.997 57.3916 211.332 58.1958 211.857 58.546C212.081 58.6952 212.06 59.087 212.152 59.2955C212.271 59.5634 212.351 59.945 212.351 60.2357C212.351 61.0242 212.284 61.7049 211.86 62.3982C211.549 62.9076 210.839 63.5624 210.199 63.5735C209.627 63.5833 209.096 63.5408 208.569 63.2914C208.052 63.0466 207.562 62.834 207.13 62.4452C206.75 62.1028 206.327 61.786 205.96 61.4345C205.658 61.1446 205.317 60.9912 204.96 60.7894C204.453 60.5028 203.795 60.3875 203.231 60.2592C202.599 60.1157 201.953 60.0566 201.324 59.8806C200.609 59.6804 199.953 59.3864 199.481 58.7784C199.032 58.2014 199 57.5491 199 56.8406C199 56.3818 199.054 55.8196 199.308 55.4198C199.418 55.248 199.628 55.1547 199.799 55.0646C199.994 54.9617 200.171 54.8216 200.366 54.712C200.761 54.4901 201.326 54.3843 201.774 54.3595C202.171 54.3374 202.581 54.2184 202.975 54.2184C203.293 54.2184 203.621 54.0707 203.879 53.8894C204.267 53.6158 204.668 53.3364 205.064 53.0797C205.173 53.0092 205.312 52.7012 205.393 52.5835C205.497 52.4335 205.622 52.2354 205.767 52.1265C206.057 51.9089 206.335 51.5905 206.639 51.4213Z" stroke="#ED9026" stroke-linecap="round"/>
</svg>
