<svg width="25" height="24" viewBox="0 0 25 24" fill="none" xmlns="http://www.w3.org/2000/svg">
<path d="M21.0572 15.5862C21.1439 15.3946 21.0266 15.1614 20.9755 14.9698L20.5289 14.4281C20.5289 14.4281 20.226 14.206 19.9744 14.1047C19.5367 13.9285 19.0873 14.1481 18.6343 14.269C17.967 14.4471 17.2349 14.7593 16.7375 15.2448C16.4786 15.4975 16.2226 15.766 15.9499 16.0073C15.7192 16.2115 15.4689 16.4031 15.3619 16.7013C15.2428 17.0328 15.113 17.3624 15.0917 17.7124C15.0727 18.0232 15.1866 18.321 15.2664 18.62C15.3149 18.8018 15.6496 18.9583 15.7779 19.088C15.971 19.2832 16.3505 19.2927 16.6122 19.2704C17.829 19.1669 18.9967 18.4777 19.8004 17.6032C20.189 17.1805 20.5793 16.7367 20.8073 16.2022C20.8938 15.9994 20.9666 15.7864 21.0572 15.5862Z" stroke="#ED9026" stroke-linecap="round"/>
<path d="M22.2177 10.4787C22.6375 9.96431 22.605 9.4465 22.4442 8.84411C22.2447 8.54127 22.0682 8.19228 21.7395 7.98928C21.3872 7.77181 20.7862 7.6957 20.2972 7.73251C19.7384 7.87339 19.7326 7.90611 19.5255 8.04894C19.2175 8.26137 18.926 8.52973 18.6003 8.71012C17.9114 9.0917 17.3498 9.9464 17.1805 10.6909C17.0788 11.1377 17.0316 11.751 17.3687 12.132C17.7197 12.5285 18.2915 12.6589 18.7874 12.5266C19.3282 12.3823 19.8863 12.2501 20.3735 11.9621C20.7348 11.7486 21.0623 11.473 21.4312 11.2686C21.7767 11.0772 21.9749 10.7762 22.2177 10.4787Z" stroke="#ED9026" stroke-linecap="round"/>
<path d="M17.2055 7.02501C18.0881 6.34094 19.3867 5.61369 18.9136 4.30759L18.7553 3.71464C18.6999 3.50703 18.4647 3.48457 18.3405 3.35588C18.1176 3.12513 17.8227 3.05924 17.5127 3.03674C17.0341 3.00202 16.689 3.17584 16.2469 3.30706C15.3787 3.56482 14.3413 4.16282 13.9025 4.98532C13.5471 5.65133 13.2579 6.40075 13.6632 7.08976C13.897 7.48715 14.375 7.85092 14.8469 7.90307C15.1575 7.9374 15.5479 7.74667 15.8457 7.66719C16.312 7.54274 16.823 7.3215 17.2055 7.02501Z" stroke="#ED9026" stroke-linecap="round"/>
<path d="M12.2538 4.511C12.3064 4.23039 12.1924 3.95905 12.1207 3.69039C12.0023 3.24682 11.2185 2.82176 10.7617 2.84103C10.233 2.86333 9.73997 2.88973 9.19632 3.03483C8.67593 3.17372 8.21752 3.44522 7.79507 3.74022C7.48292 3.9582 7.24779 4.22695 6.99313 4.50661C6.80869 4.70915 6.68693 5.02607 6.47478 5.1973C6.26229 5.36879 6.32573 5.98402 6.38657 6.21198C6.4646 6.50432 6.56831 6.76422 6.72516 7.0207C7.04277 7.54004 7.44929 7.78952 8.07841 7.77955C8.57895 7.77162 9.12672 7.51557 9.58762 7.35219C10.0839 7.17629 10.4614 6.8283 10.8723 6.50913C11.3114 6.16815 11.7522 5.62368 11.9721 5.11092C12.0581 4.91036 12.2132 4.72764 12.2538 4.511Z" stroke="#ED9026" stroke-linecap="round"/>
<path d="M14.1817 13.1432C14.3475 12.4835 14.1339 11.8665 13.8496 11.2833C13.725 11.0942 13.592 10.8706 13.4389 10.7121C13.2738 10.5411 13.0866 10.4135 12.8691 10.2876C12.4411 10.0399 11.8906 9.92797 11.4068 10.0571L10.5764 10.2787C10.3428 10.3411 10.0831 10.5609 9.87747 10.6896C9.30654 11.047 8.67985 10.8023 8.10203 10.6835C7.53075 10.566 6.69742 10.4535 6.24026 10.0509C6.04546 9.87939 5.6854 9.9968 5.46795 9.96228C5.18862 9.91795 4.81305 9.93883 4.54193 10.0112C3.80681 10.2074 3.18884 10.4396 2.64787 11.0071C2.25038 11.4241 1.81649 12.2489 1.96544 12.8483C2.09844 13.3835 2.27045 13.8688 2.63398 14.2976C2.99089 14.7186 3.31106 15.1227 3.78105 15.4287C4.19498 15.6983 4.59555 16.0136 5.01459 16.2681C5.36016 16.478 5.58804 16.7576 5.86497 17.0402C6.25842 17.4417 6.52961 18.0262 6.78954 18.5203C7.08054 19.0735 7.29653 19.6614 7.61706 20.2037C7.98161 20.8204 8.41896 21.359 9.10351 21.6486C9.7532 21.9234 10.3693 21.7907 11.0299 21.6144C11.4576 21.5002 11.9685 21.3102 12.2779 20.9735C12.4109 20.8288 12.4454 20.6089 12.4869 20.4273C12.5343 20.2199 12.6209 20.0199 12.6746 19.8112C12.7834 19.388 12.7412 18.8342 12.653 18.4109C12.5747 18.0347 12.5836 17.6231 12.4856 17.2557C12.4065 16.9594 12.4625 16.6167 12.5675 16.3313C12.7258 15.9007 12.8867 15.458 13.0273 15.0243C13.0659 14.9051 13.3186 14.6992 13.4081 14.594C13.5221 14.4598 13.6759 14.2944 13.7413 14.132C13.8719 13.8074 14.0997 13.4693 14.1817 13.1432Z" stroke="#ED9026" stroke-linecap="round"/>
</svg>
