<svg width="27" height="25" viewBox="0 0 27 25" fill="none" xmlns="http://www.w3.org/2000/svg">
<path fill-rule="evenodd" clip-rule="evenodd" d="M16.9759 8H8.99979C8.97554 7.87737 8.9511 7.74179 8.92826 7.59563C8.81991 6.90212 8.7548 6.0146 8.88922 5.15438C9.02314 4.29734 9.34271 3.53702 9.94317 2.98803C10.534 2.4478 11.5197 2 13.2137 2C14.911 2 15.8495 2.44894 16.3847 2.9679C16.9298 3.4965 17.2002 4.23676 17.2805 5.09335C17.361 5.95151 17.2407 6.83971 17.0883 7.53631C17.0511 7.70632 17.0127 7.86211 16.9759 8ZM6.95224 7.90437C6.95728 7.93667 6.9624 7.96855 6.96757 8H3.00134C1.06679 8 -0.362 9.804 0.0810872 11.6871L2.66932 22.6871C2.98818 24.0423 4.19742 25 5.58957 25H20.8375C22.2296 25 23.4389 24.0423 23.7577 22.6871L26.346 11.6871C26.7891 9.804 25.3603 8 23.4257 8H19.0341L19.0421 7.96369C19.2179 7.16029 19.3788 6.04849 19.2718 4.90665C19.1646 3.76324 18.7787 2.5035 17.777 1.5321C16.7653 0.551065 15.2664 0 13.2137 0C11.1577 0 9.64338 0.552195 8.59363 1.51197C7.55347 2.46298 7.09179 3.70266 6.9132 4.84562C6.7351 5.9854 6.82623 7.09788 6.95224 7.90437ZM13.2135 24C17.0795 24 20.2135 20.866 20.2135 17C20.2135 13.134 17.0795 10 13.2135 10C9.34751 10 6.2135 13.134 6.2135 17C6.2135 20.866 9.34751 24 13.2135 24Z" fill="white"/>
<path d="M13.2132 20.14C12.6266 20.14 12.1099 19.9867 11.6632 19.68C11.2232 19.3733 10.8799 18.94 10.6332 18.38C10.3866 17.82 10.2632 17.1733 10.2632 16.44C10.2632 15.74 10.3866 15.12 10.6332 14.58C10.8799 14.0333 11.2266 13.61 11.6732 13.31C12.1199 13.01 12.6332 12.86 13.2132 12.86C13.7999 12.86 14.3166 13.0133 14.7632 13.32C15.2099 13.62 15.5532 14.04 15.7932 14.58C16.0399 15.12 16.1632 15.74 16.1632 16.44C16.1632 17.1733 16.0399 17.82 15.7932 18.38C15.5532 18.94 15.2099 19.3733 14.7632 19.68C14.3166 19.9867 13.7999 20.14 13.2132 20.14ZM13.2132 18.99C13.7199 18.99 14.1232 18.78 14.4232 18.36C14.7299 17.94 14.8832 17.3 14.8832 16.44C14.8832 15.64 14.7299 15.0333 14.4232 14.62C14.1166 14.2 13.7132 13.99 13.2132 13.99C12.7132 13.99 12.3099 14.2 12.0032 14.62C11.6966 15.0333 11.5432 15.64 11.5432 16.44C11.5432 17.2933 11.6932 17.9333 11.9932 18.36C12.2999 18.78 12.7066 18.99 13.2132 18.99Z" fill="white"/>
</svg>
