<svg width="26" height="24" viewBox="0 0 26 24" fill="none" xmlns="http://www.w3.org/2000/svg">
<path d="M4.07925 15.4659C3.99253 15.2742 4.1098 15.041 4.16093 14.8494L4.60752 14.3077C4.60752 14.3077 4.91037 14.0856 5.16203 13.9843C5.59971 13.8081 6.0491 14.0278 6.5021 14.1487C7.16942 14.3268 7.90148 14.639 8.39887 15.1244C8.65785 15.3771 8.9138 15.6456 9.18649 15.887C9.4172 16.0911 9.66751 16.2828 9.77456 16.5809C9.89361 16.9125 10.0234 17.242 10.0448 17.592C10.0637 17.9028 9.94982 18.2007 9.87001 18.4997C9.82151 18.6814 9.48678 18.838 9.35847 18.9677C9.16545 19.1628 8.78589 19.1723 8.52423 19.1501C7.30741 19.0465 6.13974 18.3574 5.33602 17.4829C4.94746 17.0601 4.55712 16.6163 4.3291 16.0818C4.24259 15.879 4.16981 15.666 4.07925 15.4659Z" stroke="#ED9026" stroke-linecap="round"/>
<path d="M2.91874 10.3584C2.4989 9.84395 2.53143 9.32614 2.69221 8.72375C2.89174 8.4209 3.06818 8.07191 3.39695 7.86892C3.74917 7.65145 4.35026 7.57534 4.83924 7.61215C5.39798 7.75303 5.40386 7.78575 5.61092 7.92858C5.91888 8.14101 6.21037 8.40937 6.53606 8.58976C7.22503 8.97134 7.7866 9.82604 7.95594 10.5705C8.05758 11.0174 8.10485 11.6306 7.7677 12.0116C7.41676 12.4081 6.84487 12.5386 6.34903 12.4062C5.80826 12.2619 5.25012 12.1297 4.76289 11.8417C4.40163 11.6282 4.07414 11.3526 3.70521 11.1483C3.35967 10.9569 3.16153 10.6559 2.91874 10.3584Z" stroke="#ED9026" stroke-linecap="round"/>
<path d="M7.93091 6.90465C7.0483 6.22058 5.74967 5.49333 6.22282 4.18723L6.38108 3.59428C6.43649 3.38667 6.67169 3.36421 6.79596 3.23552C7.01878 3.00477 7.31371 2.93887 7.62373 2.91638C8.10231 2.88166 8.44746 3.05548 8.88948 3.1867C9.75771 3.44446 10.7951 4.04246 11.2339 4.86496C11.5893 5.53097 11.8785 6.28038 11.4732 6.9694C11.2394 7.36679 10.7614 7.73055 10.2895 7.78271C9.9789 7.81704 9.58851 7.62631 9.29073 7.54683C8.82444 7.42238 8.31345 7.20114 7.93091 6.90465Z" stroke="#ED9026" stroke-linecap="round"/>
<path d="M12.8826 4.39064C12.83 4.11003 12.944 3.83869 13.0157 3.57003C13.1341 3.12646 13.9179 2.7014 14.3747 2.72066C14.9034 2.74296 15.3964 2.76937 15.9401 2.91447C16.4605 3.05336 16.9189 3.32486 17.3413 3.61986C17.6535 3.83784 17.8886 4.10659 18.1433 4.38624C18.3277 4.58879 18.4495 4.90571 18.6616 5.07693C18.8741 5.24843 18.8107 5.86366 18.7498 6.09162C18.6718 6.38396 18.5681 6.64386 18.4113 6.90034C18.0936 7.41968 17.6871 7.66915 17.058 7.65919C16.5575 7.65126 16.0097 7.3952 15.5488 7.23183C15.0525 7.05593 14.675 6.70794 14.2641 6.38876C13.825 6.04779 13.3842 5.50332 13.1643 4.99056C13.0783 4.79 12.9232 4.60728 12.8826 4.39064Z" stroke="#ED9026" stroke-linecap="round"/>
<path d="M10.9547 13.0229C10.7889 12.3631 11.0025 11.7461 11.2868 11.1629C11.4114 10.9739 11.5444 10.7503 11.6975 10.5917C11.8626 10.4208 12.0498 10.2931 12.2673 10.1673C12.6954 9.91957 13.2458 9.8076 13.7296 9.93674L14.56 10.1584C14.7936 10.2207 15.0533 10.4405 15.2589 10.5693C15.8299 10.9267 16.4566 10.682 17.0344 10.5631C17.6057 10.4457 18.439 10.3331 18.8962 9.93056C19.0909 9.75903 19.451 9.87643 19.6685 9.84192C19.9478 9.79759 20.3234 9.81847 20.5945 9.89083C21.3296 10.087 21.9476 10.3192 22.4885 10.8868C22.886 11.3038 23.3199 12.1286 23.171 12.7279C23.038 13.2631 22.866 13.7484 22.5024 14.1772C22.1455 14.5982 21.8254 15.0024 21.3554 15.3084C20.9414 15.5779 20.5409 15.8932 20.1218 16.1478C19.7763 16.3577 19.5484 16.6373 19.2714 16.9199C18.878 17.3214 18.6068 17.9059 18.3469 18.3999C18.0559 18.9531 17.8399 19.541 17.5194 20.0833C17.1548 20.7001 16.7174 21.2386 16.0329 21.5282C15.3832 21.8031 14.7671 21.6703 14.1065 21.494C13.6788 21.3799 13.1679 21.1898 12.8585 20.8531C12.7255 20.7084 12.691 20.4885 12.6495 20.3069C12.6021 20.0995 12.5155 19.8996 12.4618 19.6908C12.3531 19.2676 12.3952 18.7138 12.4834 18.2906C12.5617 17.9144 12.5528 17.5028 12.6509 17.1353C12.7299 16.8391 12.6739 16.4963 12.5689 16.2109C12.4106 15.7803 12.2497 15.3376 12.1091 14.9039C12.0705 14.7847 11.8178 14.5789 11.7283 14.4736C11.6143 14.3395 11.4605 14.1741 11.3951 14.0116C11.2645 13.687 11.0367 13.3489 10.9547 13.0229Z" stroke="#ED9026" stroke-linecap="round"/>
</svg>
